<svg width="280" height="100" viewBox="0 0 280 100" fill="none" xmlns="http://www.w3.org/2000/svg">
<g opacity="0.8">
<path d="M247.731 57.7355L254.443 50.5605H250.599L244.437 57.4341V50.5605H241.447L241.386 65.7547H244.437V58.5194L255.359 70.94H259.264L247.731 57.7355Z" fill="#9A9A9A"/>
<path d="M186.899 50.4997H183.055L176.892 57.3733V50.4395H173.902L173.841 65.6939H176.892V58.4586L187.814 70.8189L191.719 70.8792L180.187 57.6747L186.899 50.4997Z" fill="#9A9A9A"/>
<path d="M199.833 50.4999V51.6455C198.491 50.6205 196.782 50.0176 194.952 50.0176C190.436 50.0176 186.775 53.6352 186.775 58.097C186.775 62.5588 190.436 66.1764 194.952 66.1764C196.782 66.1764 198.491 65.5735 199.833 64.6088V65.6338H202.945V50.4396L199.833 50.4999ZM194.952 63.3426C192.023 63.3426 189.704 60.9911 189.704 58.1573C189.704 55.2632 192.084 52.972 194.952 52.972C197.88 52.972 200.199 55.3235 200.199 58.1573C200.199 61.0514 197.819 63.3426 194.952 63.3426Z" fill="#9A9A9A"/>
<path d="M213.562 50.0781C211.732 50.0781 210.023 50.6811 208.681 51.7061V50.5002H205.569V70.8796H208.681V64.6693C210.023 65.6943 211.732 66.2972 213.562 66.2972C218.077 66.2972 221.738 62.6796 221.799 58.2178C221.738 53.6958 218.077 50.0781 213.562 50.0781ZM213.562 63.4031C210.633 63.4031 208.315 61.0517 208.315 58.2178C208.315 55.3237 210.694 53.0325 213.562 53.0325C216.491 53.0325 218.809 55.384 218.809 58.2781C218.809 61.0517 216.43 63.4031 213.562 63.4031Z" fill="#9A9A9A"/>
<path d="M167.434 51.9471C167.251 54.6603 164.993 56.7706 162.186 56.7706C161.942 56.7706 161.759 56.7706 161.515 56.7103C162.125 54.7206 162.491 52.6706 162.491 50.5C162.491 39.225 153.217 30 141.746 30C130.336 30 121 39.1647 121 50.5C121 61.8353 130.275 71 141.746 71C149.922 71 157 66.2971 160.417 59.4838C160.966 59.6044 161.576 59.6647 162.186 59.6647C164.2 59.6647 166.03 58.9412 167.434 57.7956V65.6941H170.546V50.4397H167.434V51.9471ZM141.746 68.1059C131.922 68.1059 123.929 60.2074 123.929 50.5C123.99 40.7926 131.922 32.8941 141.746 32.8941C151.569 32.8941 159.563 40.7926 159.502 50.5C159.502 52.2485 159.257 53.9368 158.769 55.5044C157.671 54.5397 156.939 53.1529 156.939 51.5853V50.4397H154.01V51.5853C154.01 54.4191 155.474 56.8912 157.671 58.3382C154.742 64.1265 148.702 68.1059 141.746 68.1059Z" fill="#9A9A9A"/>
<path d="M235.346 59.3637C235.224 61.6549 233.271 63.524 230.891 63.524C228.451 63.524 226.437 61.5343 226.437 59.1226C226.437 59.1226 226.437 59.1829 226.437 50.6211H223.569C223.569 58.9417 223.569 59.1226 223.569 59.1226C223.569 63.1623 226.803 66.3579 230.891 66.3579C232.6 66.3579 234.125 65.8152 235.346 64.8505V65.8755H238.396V50.6211H235.346V59.3637Z" fill="#9A9A9A"/>
</g>
</svg>
